<?xml version="1.0" encoding="UTF-8" standalone="no"?><!DOCTYPE svg PUBLIC "-//W3C//DTD SVG 1.1//EN" "http://www.w3.org/Graphics/SVG/1.1/DTD/svg11.dtd"><svg width="100%" height="100%" viewBox="0 0 311 467" version="1.1" xmlns="http://www.w3.org/2000/svg" xmlns:xlink="http://www.w3.org/1999/xlink" xml:space="preserve" xmlns:serif="http://www.serif.com/" style="fill-rule:evenodd;clip-rule:evenodd;stroke-linecap:round;stroke-linejoin:round;stroke-miterlimit:1.5;"><g id="Layer1"><path d="M90.663,467.278c-17.688,-38.56 -32.338,-65.551 -34.487,-109.251c-1.972,-40.098 6.589,-83.534 31.137,-123.58c24.434,-39.859 34.835,-71.078 35.977,-116.936c0.059,-2.377 0.094,-4.793 0.104,-7.251c0.167,-40.61 -15.026,-71.995 -38.011,-111.47l128.431,-0.24c22.985,39.475 38.178,70.86 38.011,111.47c-0.205,49.897 -10.381,82.262 -36.081,124.187c-24.548,40.046 -33.108,83.482 -31.137,123.58c2.149,43.7 16.799,70.691 34.488,109.251l-128.432,0.24Z" style="fill:#fff;stroke:#000;stroke-width:0.75px;"/><path d="M91.727,467.471c-17.689,-38.56 -32.339,-65.551 -34.488,-109.251c-1.971,-40.098 6.589,-83.534 31.137,-123.58c25.7,-41.926 35.875,-74.291 36.081,-124.188c0.167,-40.609 -15.026,-71.994 -38.011,-111.469l-15.174,0c22.985,39.475 38.178,70.86 38.011,111.469c-0.205,49.897 -10.38,82.262 -36.081,124.188c-24.548,40.046 -33.108,83.482 -31.136,123.58c2.148,43.7 16.798,70.691 34.487,109.251l15.174,0Z" style="stroke:#000;stroke-width:0.75px;"/><path d="M232.97,469.035c-17.689,-38.561 -32.339,-65.551 -34.488,-109.252c-1.971,-40.098 6.589,-83.534 31.137,-123.579c25.7,-41.926 35.875,-74.291 36.081,-124.188c0.167,-40.61 -15.026,-71.995 -38.011,-111.469l-15.174,0c22.985,39.474 38.178,70.859 38.011,111.469c-0.205,49.897 -10.381,82.262 -36.081,124.188c-24.548,40.045 -33.108,83.481 -31.137,123.579c2.149,43.701 16.799,70.691 34.488,109.252l15.174,0Z" style="stroke:#000;stroke-width:0.75px;"/></g></svg>